<svg width="128" height="128" xmlns="http://www.w3.org/2000/svg" xmlns:svg="http://www.w3.org/2000/svg">
 <defs>
  <linearGradient id="linearGradient4149" y2="0.91496" x2="0.05676" y1="0.11367" x1="0.88141">
   <stop id="stop3630-72-9-1" offset="0" stop-color="#dbdbdb"/>
   <stop id="stop3632-7-0-7" offset="1" stop-color="#757575"/>
  </linearGradient>
 </defs>
 <metadata>image/svg+xmlOpenclipartTouchpad Disable Icon2010-11-21T20:32:16Icon inspired by Awoken gtk icons themehttps://openclipart.org/detail/97513/touchpad-disable-icon-by-kubakubaAwOkendeletedisablegradientgreyiconmonoshapeoffredremovetouchpad</metadata>
 <g>
  <title>Layer 1</title>
  <path id="rect3902-2" d="m18.812,13.438c-4.6876,0 -8.5,3.7811 -8.5,8.4688l0,47.5l0,11.688l52.094,0l3.1875,0l52.094,0l0,-11.688l0,-47.5c0,-4.6876 -3.7811,-8.4688 -8.4688,-8.4688l-90.406,0l-0.0007,0zm-8.5,70.844l0,12.531l0,9.2813c0,4.6876 3.8124,8.4688 8.5,8.4688l31.469,0l12.125,0l0,-30.281l-52.094,0l0,-0.0001zm55.281,0l0,30.281l2.6562,0l9.4688,0l31.5,0c4.6876,0 8.4688,-3.7811 8.4688,-8.4688l0,-9.2813l0,-12.531l-52.094,0l0.0002,0.0001z" fill="url(#linearGradient4149)"/>
  <rect id="rect3872" height="100.78906" width="106.69532" y="13.52637" x="10.73144" stroke-width="0.9636" opacity="0" fill="black"/>
  <path id="path3992" d="m64.4142,27c-11.189,0 -20.25,9.0614 -20.25,20.25s9.0614,20.281 20.25,20.281s20.281,-9.0927 20.281,-20.281c0,-11.189 -9.09,-20.25 -20.276,-20.25l-0.005,0zm-13.25,16.781l26.531,0l0,6.9688l-26.531,0l0,-6.9688z" fill="#bf0000"/>
 </g>
</svg>